<?xml version="1.0" encoding="UTF-8" standalone="no"?>
<!-- Created with Inkscape (http://www.inkscape.org/) -->

<svg
   width="149.58502mm"
   height="158.64713mm"
   viewBox="0 0 149.58502 158.64713"
   version="1.1"
   id="svg1"
   xml:space="preserve"
   xmlns:inkscape="http://www.inkscape.org/namespaces/inkscape"
   xmlns:sodipodi="http://sodipodi.sourceforge.net/DTD/sodipodi-0.dtd"
   xmlns="http://www.w3.org/2000/svg"
   xmlns:svg="http://www.w3.org/2000/svg"><sodipodi:namedview
     id="namedview1"
     pagecolor="#ffffff"
     bordercolor="#000000"
     borderopacity="0.25"
     inkscape:showpageshadow="2"
     inkscape:pageopacity="0.0"
     inkscape:pagecheckerboard="0"
     inkscape:deskcolor="#d1d1d1"
     inkscape:document-units="mm"><inkscape:page
       x="0"
       y="-6.0870845e-20"
       width="149.58502"
       height="158.64714"
       id="page1"
       margin="0"
       bleed="0" /></sodipodi:namedview><defs
     id="defs1"><inkscape:path-effect
       effect="simplify"
       id="path-effect2"
       is_visible="true"
       lpeversion="1.3"
       threshold="17"
       steps="1"
       smooth_angles="360"
       helper_size="0"
       simplify_individual_paths="false"
       simplify_just_coalesce="false" /></defs><g
     inkscape:label="Calque 1"
     inkscape:groupmode="layer"
     id="layer1"
     transform="translate(-252.2518,-71.718609)"><g
       id="g23"
       inkscape:export-filename="logo,svg.svg"
       inkscape:export-xdpi="96"
       inkscape:export-ydpi="96"><path
         d="m 333.67007,184.60165 c -0.25236,0.0139 -1.67935,0.76952 -3.31452,1.76113 -3.82107,2.31719 -9.96051,4.74527 -14.35623,5.67718 -2.3459,0.49735 -7.46099,0.6866 -18.78697,0.69556 -8.55985,0.007 -17.00825,0.24284 -18.77457,0.52452 -6.43346,1.02594 -12.71273,5.24657 -15.27348,10.26604 -1.63277,3.20049 -3.20566,10.95333 -2.22209,10.95333 0.16025,0 1.55006,-1.12133 3.08819,-2.49235 3.36273,-2.9974 6.48736,-4.8151 11.44271,-6.65592 3.59169,-1.33425 4.12296,-1.38884 17.29248,-1.76992 7.47288,-0.21624 14.47642,-0.59523 15.56339,-0.84233 10.69432,-2.43109 18.39393,-7.57165 24.42435,-16.3065 0.62052,-0.89881 1.04843,-1.71043 0.95085,-1.8035 -0.006,-0.006 -0.0173,-0.008 -0.0341,-0.007 z"
         style="fill:#000000;fill-opacity:0"
         id="path23" /><path
         d="m 356.36688,175.57223 c -0.83215,-0.003 -1.8151,1.58031 -4.08864,4.8767 -2.13234,3.09168 -4.73082,6.73331 -5.77433,8.09202 -1.04351,1.3587 -3.18556,4.24892 -4.76043,6.42286 -3.01415,4.1607 -8.32229,9.45789 -12.04009,12.0158 -1.21638,0.83689 -3.92126,2.4222 -6.011,3.52279 -4.27888,2.25352 -3.68193,2.52841 2.24534,1.03456 11.91238,-3.00229 20.75453,-9.4242 29.64263,-21.5284 5.43193,-7.39744 5.36537,-7.21009 3.67678,-10.33167 -1.45982,-2.69867 -2.10855,-4.1018 -2.89026,-4.10466 z"
         id="path22" /><path
         d="m 356.36688,175.57223 c 0.78171,0.003 1.43044,1.40599 2.89026,4.10466 1.68859,3.12158 1.75515,2.93423 -3.67678,10.33167 -8.8881,12.1042 -17.73025,18.52611 -29.64263,21.5284 -5.92727,1.49385 -6.52422,1.21896 -2.24534,-1.03456 2.08974,-1.10059 4.79462,-2.6859 6.011,-3.52279 3.7178,-2.55791 9.02594,-7.8551 12.04009,-12.0158 1.57487,-2.17394 3.71692,-5.06416 4.76043,-6.42286 1.04351,-1.35871 3.64199,-5.00034 5.77433,-8.09202 2.27354,-3.29639 3.25649,-4.87975 4.08864,-4.8767 z"
         style="fill:#0bad78;fill-opacity:1"
         id="path21" /><path
         d="m 252.25179,120.11101 v 36.62206 36.62154 l 3.19257,-3.44837 c 7.44261,-8.03872 16.04639,-11.43822 29.04577,-11.47682 l 5.80533,-0.017 v -29.15068 -29.15068 h -19.0221 z"
         id="path20"
         style="fill:#072847;fill-opacity:1" /><path
         d="m 252.62799,105.74187 0.34055,1.37924 c 0.61263,2.48457 1.97679,4.25146 4.18424,5.41879 l 2.17144,1.14825 24.99641,0.01 c 13.91854,0.005 26.52935,0.22843 28.45511,0.50281 7.12258,1.01478 14.02299,4.31808 19.73626,9.44852 3.16847,2.84525 8.3404,10.3361 9.27334,13.43122 l 0.57257,1.90014 1.96061,-5.51852 1.96009,-5.51853 -0.9586,-1.67793 c -1.80257,-3.15412 -6.3554,-8.24054 -9.79785,-10.94662 -1.89178,-1.48712 -5.67167,-3.78364 -8.39949,-5.10357 -8.96455,-4.33779 -6.74212,-4.11363 -42.69145,-4.30464 z"
         style="fill:#0cac7a;fill-opacity:1"
         id="path19" /><path
         d="m 277.81973,88.870028 -25.07392,0.132291 v 3.943429 3.943945 h 30.58883 c 32.95287,0 33.93186,0.06297 41.72149,2.677873 8.87207,2.978254 17.64033,8.754804 22.79912,15.020784 1.35871,1.65032 2.58128,3.00464 2.71715,3.00964 0.13587,0.005 1.19505,-1.69774 2.35334,-3.78427 l 2.10582,-3.79408 -4.34237,-4.28036 c -7.37441,-7.269911 -16.26862,-12.296536 -26.70276,-15.091066 -6.25182,-1.67439 -13.43589,-1.950976 -46.1667,-1.778186 z"
         style="fill:#0cac7a;fill-opacity:1"
         id="path18" /><path
         d="m 263.9875,71.767196 c -4.08367,0.09443 -4.86615,0.336605 -5.93348,0.808736 -2.4849,1.09919 -4.65273,3.618803 -5.11907,5.950541 l -0.31264,1.564762 31.55879,0.0031 c 34.0446,0.0031 36.35568,0.139906 46.08143,2.728516 8.38671,2.23221 19.4056,7.84268 25.71419,13.09274 l 2.9223,2.431893 -0.51263,1.857256 c -0.6299,2.28133 -0.25664,5.80338 0.86455,8.15454 l 0.84078,1.76268 -2.5492,4.21938 c -5.86428,9.70861 -10.91112,23.58382 -13.42089,36.89646 -2.77817,14.73634 -8.90741,23.50145 -20.50366,29.3212 -7.35211,3.68977 -8.64535,3.87438 -29.86432,4.25918 -21.72817,0.39403 -22.07441,0.45385 -28.8401,4.97902 -4.90758,3.28239 -8.0823,7.40603 -10.58644,13.75162 -1.22492,3.10399 -1.29208,3.74486 -1.31258,12.44885 l -0.0217,9.1767 1.32395,1.73788 c 0.72816,0.95603 2.06188,2.1025 2.96416,2.54713 v -5.2e-4 c 0.90228,0.44462 2.31916,0.81359 3.14864,0.81959 1.36828,0.0102 1.59204,-0.22138 2.41071,-2.49804 1.96618,-5.46776 6.4879,-10.48289 11.89178,-13.18989 4.77158,-2.39025 6.79044,-2.68599 20.9982,-3.07268 11.52417,-0.31365 14.15683,-0.52734 17.34158,-1.4087 7.85027,-2.17252 13.92386,-5.61672 19.64428,-11.14041 4.7556,-4.59204 7.37927,-8.32486 10.67273,-15.1846 3.24321,-6.75506 5.48938,-14.48953 8.16126,-28.09958 3.08697,-15.72443 6.50614,-25.77965 12.26437,-36.06756 l 2.35076,-4.19975 h 3.87986 3.87935 l 1.17564,1.72858 c 2.65785,3.90846 8.44712,19.82755 7.99848,21.99401 -0.28053,1.35466 -4.53104,-1.87471 -11.19053,-8.50336 l -6.0849,-6.05751 -1.72806,3.79202 c -1.54492,3.39012 -1.65949,3.9204 -1.07901,5.00848 0.73077,1.36979 7.56679,7.63014 11.91297,10.90992 1.83964,1.38826 2.76728,2.41399 2.59364,2.8665 -0.1487,0.3875 -0.27137,2.07555 -0.27337,3.7517 l -0.003,3.04788 -3.88555,2.86391 c -2.13692,1.57533 -4.35191,3.36121 -4.92218,3.96823 l -1.03663,1.10329 1.98799,3.3197 c 1.09347,1.82584 2.14238,3.31536 2.33113,3.30936 0.18874,-0.006 2.45536,-1.78294 5.0369,-3.94963 2.58154,-2.16668 5.0272,-3.88282 5.43481,-3.81372 0.40761,0.0691 0.81389,0.63672 0.90279,1.26142 0.19349,1.35908 -2.37742,10.29114 -4.05247,14.07872 -1.13455,2.56542 -1.29088,2.70511 -3.24321,2.8913 -1.12817,0.10762 -2.21705,0.0776 -2.41949,-0.0667 -0.20243,-0.14424 -2.75402,-4.0813 -5.66994,-8.74882 -5.04898,-8.08195 -10.19916,-17.86551 -10.21436,-19.40398 -0.004,-0.44254 -0.17655,-0.53695 -0.45062,-0.24702 -0.24402,0.25816 -0.95864,3.3192 -1.58802,6.80269 l -1.14412,6.33398 1.42369,2.55953 c 0.78315,1.40785 3.51237,5.85193 6.06475,9.87588 l 4.64054,7.31635 -1.26504,2.53887 c -1.4645,2.93886 -1.70631,7.24928 -0.56069,9.99112 l 0.70435,1.68517 -3.54552,3.36413 c -10.40473,9.87231 -22.74075,16.46659 -36.51147,19.51819 -3.98154,0.88231 -6.98482,1.05656 -22.86423,1.32602 l -18.28054,0.31057 -2.71767,1.28571 c -2.72039,1.28758 -5.92766,4.02367 -6.94479,5.92419 l -0.54157,1.01182 23.62957,-0.21445 c 21.4976,-0.19504 24.05824,-0.30589 28.37449,-1.23145 15.18344,-3.25588 30.03105,-11.08884 41.75818,-22.02863 3.90028,-3.63842 4.05928,-3.72937 5.67872,-3.26492 2.31042,0.66262 3.79895,0.5999 6.77788,-0.28474 5.0739,-1.50679 8.49142,-6.27113 8.47132,-11.81013 -0.0108,-2.97289 -1.18145,-6.49328 -2.72697,-8.20105 -0.61934,-0.68437 -0.48877,-1.2984 1.05523,-4.94957 1.49745,-3.5411 3.1947,-9.14518 4.34754,-14.35726 0.2034,-0.91959 0.68791,-1.37626 1.66915,-1.57251 0.7604,-0.15208 2.47701,-1.01403 3.81476,-1.91565 4.32985,-2.91828 6.09435,-8.40685 4.48396,-13.94643 -1.06006,-3.64646 -4.18261,-6.93492 -7.40368,-7.79643 -2.12294,-0.5678 -2.23552,-0.69197 -2.79105,-3.08973 -1.33888,-5.77883 -4.0995,-13.27777 -7.06572,-19.19211 l -3.16879,-6.31796 0.93379,-2.45722 c 1.20406,-3.16884 1.1804,-5.70209 -0.0842,-9.082131 -2.24394,-5.99748 -8.84592,-9.070154 -15.32052,-7.130314 -1.83745,0.55051 -1.94437,0.509381 -5.01726,-1.935799 -8.21186,-6.53437 -18.82897,-11.847301 -29.46487,-14.744837 -9.86223,-2.686768 -10.60251,-2.73981 -42.13903,-2.9993 -14.27236,-0.117437 -21.65687,-0.17039 -25.74055,-0.07596 z m 69.68257,112.834454 c 0.0168,-9.2e-4 0.028,0.001 0.0341,0.007 0.0976,0.0931 -0.33033,0.90469 -0.95085,1.8035 -6.03042,8.73485 -13.73003,13.87541 -24.42435,16.3065 -1.08697,0.2471 -8.09051,0.62609 -15.56339,0.84233 -13.16952,0.38108 -13.70079,0.43567 -17.29248,1.76992 -4.95535,1.84082 -8.07998,3.65852 -11.44271,6.65592 -1.53813,1.37102 -2.92794,2.49235 -3.08819,2.49235 -0.98357,0 0.58932,-7.75284 2.22209,-10.95333 2.56075,-5.01947 8.84002,-9.2401 15.27348,-10.26604 1.76632,-0.28168 10.21472,-0.51752 18.77457,-0.52452 11.32598,-0.009 16.44107,-0.19821 18.78697,-0.69556 4.39572,-0.93191 10.53516,-3.35999 14.35623,-5.67718 1.63517,-0.99161 3.06216,-1.74725 3.31452,-1.76113 z"
         style="fill:#0cac7a;fill-opacity:1"
         id="path17" /></g><path
       style="fill:#06ac79;fill-opacity:1;stroke:none;stroke-width:0;stroke-linejoin:bevel;paint-order:markers fill stroke"
       d="m 71.88192,174.2592 c 88.58176,16.94187 177.16352,33.88373 265.74528,50.8256"
       id="path2"
       inkscape:path-effect="#path-effect2"
       inkscape:original-d="M 71.88192,174.2592 337.6272,225.0848" /></g></svg>
